<?xml version="1.0" encoding="UTF-8" standalone="no"?>
<svg
   xmlns:dc="http://purl.org/dc/elements/1.1/"
   xmlns:cc="http://creativecommons.org/ns#"
   xmlns:rdf="http://www.w3.org/1999/02/22-rdf-syntax-ns#"
   xmlns:svg="http://www.w3.org/2000/svg"
   xmlns="http://www.w3.org/2000/svg"
   xmlns:sodipodi="http://sodipodi.sourceforge.net/DTD/sodipodi-0.dtd"
   xmlns:inkscape="http://www.inkscape.org/namespaces/inkscape"
   version="1.1"
   x="0px"
   y="0px"
   viewBox="0 0 91.5 50"
   xml:space="preserve"
   id="svg10"
   sodipodi:docname="NAND.svg"
   width="91.5"
   height="50"
   inkscape:version="0.92.4 (5da689c313, 2019-01-14)"><metadata
     id="metadata16"><rdf:RDF><cc:Work
         rdf:about=""><dc:format>image/svg+xml</dc:format><dc:type
           rdf:resource="http://purl.org/dc/dcmitype/StillImage" /></cc:Work></rdf:RDF></metadata><defs
     id="defs14" /><sodipodi:namedview
     pagecolor="#ffffff"
     bordercolor="#666666"
     borderopacity="1"
     objecttolerance="10"
     gridtolerance="10"
     guidetolerance="10"
     inkscape:pageopacity="0"
     inkscape:pageshadow="2"
     inkscape:window-width="755"
     inkscape:window-height="480"
     id="namedview12"
     showgrid="false"
     inkscape:zoom="1.888"
     inkscape:cx="46.5"
     inkscape:cy="12.5"
     inkscape:window-x="0"
     inkscape:window-y="0"
     inkscape:window-maximized="0"
     inkscape:current-layer="svg10" /><g
     id="g4"
     transform="translate(-3.5,-25)"><path
       d="M 93.5,48.5 H 92.854 C 92.149,44.804 88.898,42 85,42 82.349,42 80.002,43.302 78.545,45.293 76.343,33.738 66.196,25 53.999,25 h -25 v 9.25 H 5 c -0.828,0 -1.5,0.672 -1.5,1.5 0,0.828 0.672,1.5 1.5,1.5 H 28.999 V 62.749 H 5 c -0.828,0 -1.5,0.672 -1.5,1.5 0,0.828 0.672,1.5 1.5,1.5 H 28.999 V 75 h 25 C 66.196,75 76.343,66.262 78.545,54.707 80.002,56.699 82.349,58 85,58 c 3.898,0 7.149,-2.804 7.854,-6.5 H 93.5 c 0.828,0 1.5,-0.672 1.5,-1.5 0,-0.828 -0.672,-1.5 -1.5,-1.5 z M 53.999,71 h -21 V 29 h 21 c 11.579,0 21,9.421 21,21 0,11.579 -9.421,21 -21,21 z M 85,56 c -3.309,0 -6,-2.691 -6,-6 0,-3.309 2.691,-6 6,-6 3.309,0 6,2.691 6,6 0,3.309 -2.691,6 -6,6 z"
       id="path2"
       inkscape:connector-curvature="0" /></g></svg>