<?xml version="1.0" encoding="UTF-8" standalone="no"?>
<svg
   xmlns:dc="http://purl.org/dc/elements/1.1/"
   xmlns:cc="http://creativecommons.org/ns#"
   xmlns:rdf="http://www.w3.org/1999/02/22-rdf-syntax-ns#"
   xmlns:svg="http://www.w3.org/2000/svg"
   xmlns="http://www.w3.org/2000/svg"
   xmlns:sodipodi="http://sodipodi.sourceforge.net/DTD/sodipodi-0.dtd"
   xmlns:inkscape="http://www.inkscape.org/namespaces/inkscape"
   version="1.1"
   x="0px"
   y="0px"
   viewBox="0 0 93 56"
   xml:space="preserve"
   id="svg22"
   sodipodi:docname="NOT.svg"
   width="93"
   height="56"
   inkscape:version="0.92.4 (5da689c313, 2019-01-14)"><metadata
     id="metadata28"><rdf:RDF><cc:Work
         rdf:about=""><dc:format>image/svg+xml</dc:format><dc:type
           rdf:resource="http://purl.org/dc/dcmitype/StillImage" /></cc:Work></rdf:RDF></metadata><defs
     id="defs26" /><sodipodi:namedview
     pagecolor="#ffffff"
     bordercolor="#666666"
     borderopacity="1"
     objecttolerance="10"
     gridtolerance="10"
     guidetolerance="10"
     inkscape:pageopacity="0"
     inkscape:pageshadow="2"
     inkscape:window-width="755"
     inkscape:window-height="480"
     id="namedview24"
     showgrid="false"
     inkscape:zoom="1.888"
     inkscape:cx="46.5"
     inkscape:cy="15.5"
     inkscape:window-x="0"
     inkscape:window-y="0"
     inkscape:window-maximized="0"
     inkscape:current-layer="svg22" /><g
     id="g16"
     transform="translate(-3.5,-22)"><g
       style="display:none"
       display="none"
       id="g12"><g
         style="display:inline"
         display="inline"
         id="g4"><path
           d="M 35.75,30.011 62.343,50 35.75,69.989 V 30.011 M 31.75,22 V 78 L 69,50 Z"
           id="path2"
           inkscape:connector-curvature="0" /></g><line
         style="display:inline;fill:none;stroke:#000000;stroke-width:3;stroke-linecap:round;stroke-linejoin:round;stroke-miterlimit:10"
         x1="5"
         y1="50"
         x2="31.75"
         y2="50"
         display="inline"
         stroke-miterlimit="10"
         id="line6" /><line
         style="display:inline;fill:none;stroke:#000000;stroke-width:3;stroke-linecap:round;stroke-linejoin:round;stroke-miterlimit:10"
         x1="83.5"
         y1="50"
         x2="95"
         y2="50"
         display="inline"
         stroke-miterlimit="10"
         id="line8" /><circle
         style="display:inline;fill:none;stroke:#000000;stroke-width:2;stroke-miterlimit:10"
         cx="76"
         cy="50"
         r="7"
         display="inline"
         stroke-miterlimit="10"
         id="circle10" /></g><path
       d="M 95,48.5 H 83.854 C 83.149,44.804 79.898,42 76,42 c -4.167,0 -7.596,3.203 -7.963,7.276 L 31.75,22 V 48.5 H 5 c -0.829,0 -1.5,0.672 -1.5,1.5 0,0.828 0.671,1.5 1.5,1.5 H 31.75 V 78 L 68.037,50.724 C 68.404,54.797 71.833,58 76,58 c 3.898,0 7.149,-2.804 7.854,-6.5 H 95 c 0.828,0 1.5,-0.672 1.5,-1.5 0,-0.828 -0.672,-1.5 -1.5,-1.5 z M 35.75,69.989 V 30.011 L 62.343,50 Z M 76,56 c -3.309,0 -6,-2.691 -6,-6 0,-3.309 2.691,-6 6,-6 3.309,0 6,2.691 6,6 0,3.309 -2.691,6 -6,6 z"
       id="path14"
       inkscape:connector-curvature="0" /></g></svg>