<?xml version="1.0" encoding="UTF-8" standalone="no"?>
<svg
   xmlns:dc="http://purl.org/dc/elements/1.1/"
   xmlns:cc="http://creativecommons.org/ns#"
   xmlns:rdf="http://www.w3.org/1999/02/22-rdf-syntax-ns#"
   xmlns:svg="http://www.w3.org/2000/svg"
   xmlns="http://www.w3.org/2000/svg"
   xmlns:sodipodi="http://sodipodi.sourceforge.net/DTD/sodipodi-0.dtd"
   xmlns:inkscape="http://www.inkscape.org/namespaces/inkscape"
   version="1.1"
   x="0px"
   y="0px"
   viewBox="0 0 93 50"
   xml:space="preserve"
   id="svg28"
   sodipodi:docname="OR.svg"
   width="93"
   height="50"
   inkscape:version="0.92.4 (5da689c313, 2019-01-14)"><metadata
     id="metadata34"><rdf:RDF><cc:Work
         rdf:about=""><dc:format>image/svg+xml</dc:format><dc:type
           rdf:resource="http://purl.org/dc/dcmitype/StillImage" /></cc:Work></rdf:RDF></metadata><defs
     id="defs32" /><sodipodi:namedview
     pagecolor="#ffffff"
     bordercolor="#666666"
     borderopacity="1"
     objecttolerance="10"
     gridtolerance="10"
     guidetolerance="10"
     inkscape:pageopacity="0"
     inkscape:pageshadow="2"
     inkscape:window-width="755"
     inkscape:window-height="480"
     id="namedview30"
     showgrid="false"
     inkscape:zoom="1.888"
     inkscape:cx="46.5"
     inkscape:cy="12.5"
     inkscape:window-x="0"
     inkscape:window-y="0"
     inkscape:window-maximized="0"
     inkscape:current-layer="svg28" /><g
     id="g22"
     transform="translate(-3.5,-25)"><g
       style="display:none"
       display="none"
       id="g18"><g
         style="display:inline"
         display="inline"
         id="g4"><path
           d="m 48.999,29 c 11.579,0 21,9.421 21,21 0,11.579 -9.421,21 -21,21 H 31.798 c 2.973,-4.98 6.201,-12.375 6.201,-21 0,-8.625 -3.228,-16.02 -6.201,-21 h 17.201 m 0,-4 h -25 C 23.999,25 34,35.75 34,50 34,64.25 23.999,75 23.999,75 h 25 c 13.807,0 25,-11.193 25,-25 0,-13.807 -11.193,-25 -25,-25 z"
           id="path2"
           inkscape:connector-curvature="0" /></g><g
         style="display:inline"
         display="inline"
         id="g8"><line
           style="fill:none;stroke:#000000;stroke-width:3;stroke-linecap:round;stroke-linejoin:round;stroke-miterlimit:10"
           x1="5"
           y1="35.75"
           x2="31.999001"
           y2="35.75"
           stroke-miterlimit="10"
           id="line6" /></g><g
         style="display:inline"
         display="inline"
         id="g12"><line
           style="fill:none;stroke:#000000;stroke-width:3;stroke-linecap:round;stroke-linejoin:round;stroke-miterlimit:10"
           x1="5"
           y1="64.25"
           x2="31.999001"
           y2="64.25"
           stroke-miterlimit="10"
           id="line10" /></g><g
         style="display:inline"
         display="inline"
         id="g16"><line
           style="fill:none;stroke:#000000;stroke-width:3;stroke-linecap:round;stroke-linejoin:round;stroke-miterlimit:10"
           x1="95"
           y1="50"
           x2="72.000999"
           y2="50"
           stroke-miterlimit="10"
           id="line14" /></g></g><path
       d="M 95,48.5 H 73.95 C 73.174,35.392 62.302,25 48.999,25 h -25 c 0,0 3.291,3.543 6.097,9.25 H 5 c -0.828,0 -1.5,0.672 -1.5,1.5 0,0.828 0.672,1.5 1.5,1.5 H 31.429 C 32.898,40.941 34,45.276 34,50 c 0,4.724 -1.101,9.059 -2.571,12.749 H 5 c -0.828,0 -1.5,0.672 -1.5,1.5 0,0.828 0.672,1.5 1.5,1.5 H 30.096 C 27.289,71.457 23.999,75 23.999,75 h 25 C 62.302,75 73.174,64.608 73.95,51.5 H 95 c 0.828,0 1.5,-0.672 1.5,-1.5 0,-0.828 -0.672,-1.5 -1.5,-1.5 z M 48.999,71 H 31.798 c 2.973,-4.98 6.201,-12.375 6.201,-21 0,-8.625 -3.228,-16.02 -6.201,-21 h 17.201 c 11.579,0 21,9.421 21,21 0,11.579 -9.421,21 -21,21 z"
       id="path20"
       inkscape:connector-curvature="0" /></g></svg>