<?xml version="1.0" encoding="UTF-8" standalone="no"?>
<svg
   xmlns:dc="http://purl.org/dc/elements/1.1/"
   xmlns:cc="http://creativecommons.org/ns#"
   xmlns:rdf="http://www.w3.org/1999/02/22-rdf-syntax-ns#"
   xmlns:svg="http://www.w3.org/2000/svg"
   xmlns="http://www.w3.org/2000/svg"
   xmlns:sodipodi="http://sodipodi.sourceforge.net/DTD/sodipodi-0.dtd"
   xmlns:inkscape="http://www.inkscape.org/namespaces/inkscape"
   version="1.1"
   x="0px"
   y="0px"
   viewBox="0 0 93 50.124001"
   xml:space="preserve"
   id="svg24"
   sodipodi:docname="XOR.svg"
   width="93"
   height="50.124001"
   inkscape:version="0.92.4 (5da689c313, 2019-01-14)"><metadata
     id="metadata30"><rdf:RDF><cc:Work
         rdf:about=""><dc:format>image/svg+xml</dc:format><dc:type
           rdf:resource="http://purl.org/dc/dcmitype/StillImage" /></cc:Work></rdf:RDF></metadata><defs
     id="defs28" /><sodipodi:namedview
     pagecolor="#ffffff"
     bordercolor="#666666"
     borderopacity="1"
     objecttolerance="10"
     gridtolerance="10"
     guidetolerance="10"
     inkscape:pageopacity="0"
     inkscape:pageshadow="2"
     inkscape:window-width="755"
     inkscape:window-height="480"
     id="namedview26"
     showgrid="false"
     inkscape:zoom="1.888"
     inkscape:cx="46.5"
     inkscape:cy="11.624"
     inkscape:window-x="0"
     inkscape:window-y="0"
     inkscape:window-maximized="0"
     inkscape:current-layer="svg24" /><g
     id="g18"
     transform="translate(-3.5,-24)"><g
       style="display:none"
       display="none"
       id="g14"><g
         style="display:inline"
         display="inline"
         id="g4"><path
           d="M 46.5,28 C 61.533,28 73.701,44.46 77.105,49.551 73.994,54.455 62.842,70 46.5,70 H 35.572 c 2.908,-4.727 5.929,-11.647 5.929,-20 0,-8.875 -3.426,-16.765 -6.448,-22 H 46.5 m 0,-4 h -19 c 0,0 10.001,11.75 10.001,26 0,14.25 -10.001,24 -10.001,24 h 19 c 22,0 35,-24 35,-24 v -1 c 0,0 -14.75,-25 -35,-25 z"
           id="path2"
           inkscape:connector-curvature="0" /></g><path
         style="display:inline;fill:none;stroke:#000000;stroke-width:4;stroke-miterlimit:10"
         d="m 22.5,72.589 c 0,0 10.001,-8.339 10.001,-22.589 0,-14.25 -9.052,-24.651 -9.052,-24.651"
         display="inline"
         stroke-miterlimit="10"
         id="path6"
         inkscape:connector-curvature="0" /><line
         style="display:inline;fill:none;stroke:#000000;stroke-width:3;stroke-linecap:round;stroke-linejoin:round;stroke-miterlimit:10"
         x1="5"
         y1="34.75"
         x2="28.999001"
         y2="34.75"
         display="inline"
         stroke-miterlimit="10"
         id="line8" /><line
         style="display:inline;fill:none;stroke:#000000;stroke-width:3;stroke-linecap:round;stroke-linejoin:round;stroke-miterlimit:10"
         x1="5"
         y1="63.25"
         x2="28.999001"
         y2="63.25"
         display="inline"
         stroke-miterlimit="10"
         id="line10" /><line
         style="display:inline;fill:none;stroke:#000000;stroke-width:3;stroke-linecap:round;stroke-linejoin:round;stroke-miterlimit:10"
         x1="95"
         y1="50"
         x2="78.125"
         y2="50"
         display="inline"
         stroke-miterlimit="10"
         id="line12" /></g><path
       d="m 34.5,50 c 0,15.013 -10.281,23.759 -10.719,24.124 L 22.5,72.588 21.216,71.055 c 0.049,-0.041 2.639,-2.284 5.072,-6.306 H 5 c -0.828,0 -1.5,-0.672 -1.5,-1.5 0,-0.828 0.672,-1.5 1.5,-1.5 H 27.877 C 29.355,58.546 30.5,54.603 30.5,50 30.5,44.753 29.189,40.044 27.594,36.25 H 5 c -0.828,0 -1.5,-0.672 -1.5,-1.5 0,-0.828 0.672,-1.5 1.5,-1.5 h 21.193 c -2.11,-4.085 -4.211,-6.54 -4.254,-6.589 l 3.018,-2.625 C 25.347,24.484 34.5,35.172 34.5,50 Z m 62,0 c 0,0.828 -0.672,1.5 -1.5,1.5 H 80.609 C 77.337,56.746 65.156,74 46.5,74 h -19 c 0,0 10.001,-9.75 10.001,-24 C 37.501,35.75 27.5,24 27.5,24 h 19 c 18.573,0 32.511,21.018 34.693,24.5 H 95 c 0.828,0 1.5,0.672 1.5,1.5 z m -19.85,0.252 c -0.014,-0.082 -0.025,-0.165 -0.025,-0.251 0,-0.297 0.089,-0.572 0.238,-0.806 C 73.162,43.741 61.204,28 46.5,28 H 35.053 c 3.023,5.235 6.448,13.125 6.448,22 0,8.353 -3.021,15.274 -5.929,20 H 46.5 C 62.135,70 73.014,55.777 76.65,50.252 Z"
       id="path16"
       inkscape:connector-curvature="0" /></g></svg>